<?xml version="1.0" encoding="iso-8859-1"?>
<!-- Uploaded to: SVG Repo, www.svgrepo.com, Generator: SVG Repo Mixer Tools -->
<svg version="1.1" id="Layer_1" xmlns="http://www.w3.org/2000/svg" xmlns:xlink="http://www.w3.org/1999/xlink" 
	 viewBox="0 0 512 512" xml:space="preserve">
<g>
	<polygon style="fill:#D0E8FF;" points="316.509,309.527 316.509,235.054 18.618,235.054 18.618,309.527 83.782,309.527 	"/>
	<rect x="18.618" y="197.818" style="fill:#D0E8FF;" width="297.891" height="18.618"/>
</g>
<path style="fill:#5CB0FF;" d="M186.182,384c-20.536,0-37.236,16.704-37.236,37.236s16.7,37.236,37.236,37.236
	s37.236-16.704,37.236-37.236S206.718,384,186.182,384z"/>
<g>
	<rect x="18.618" y="123.346" style="fill:#D0E8FF;" width="297.891" height="18.618"/>
	<rect x="18.618" y="160.582" style="fill:#D0E8FF;" width="297.891" height="18.618"/>
</g>
<path style="fill:#5CB0FF;" d="M390.982,384c-20.536,0-37.236,16.704-37.236,37.236s16.7,37.236,37.236,37.236
	c20.536,0,37.236-16.704,37.236-37.236S411.518,384,390.982,384z"/>
<path style="fill:#D0E8FF;" d="M335.127,207.127v111.709c0,5.141-4.164,9.309-9.309,9.309H93.091v83.782H131.1
	c0.036-0.215,0.125-0.41,0.164-0.624c0.511-2.833,1.241-5.585,2.164-8.254c0.169-0.49,0.349-0.968,0.532-1.452
	c1.004-2.661,2.177-5.236,3.559-7.687c0.199-0.353,0.422-0.685,0.628-1.033c1.501-2.532,3.149-4.969,5.018-7.224
	c0.051-0.061,0.109-0.115,0.16-0.177c1.877-2.245,3.951-4.311,6.152-6.237c0.248-0.216,0.475-0.449,0.727-0.661
	c2.165-1.829,4.489-3.462,6.916-4.95c0.409-0.251,0.809-0.505,1.225-0.745c2.424-1.401,4.957-2.618,7.592-3.647
	c0.46-0.179,0.922-0.341,1.388-0.509c2.706-0.976,5.49-1.775,8.37-2.325c0.368-0.07,0.742-0.107,1.112-0.17
	c3.055-0.519,6.174-0.851,9.375-0.851s6.32,0.332,9.375,0.851c0.371,0.063,0.745,0.1,1.112,0.17c2.88,0.549,5.662,1.349,8.368,2.324
	c0.466,0.168,0.931,0.33,1.391,0.51c2.634,1.029,5.167,2.245,7.59,3.646c0.416,0.24,0.816,0.494,1.225,0.745
	c2.427,1.488,4.752,3.121,6.916,4.95c0.251,0.212,0.479,0.444,0.727,0.661c2.201,1.926,4.275,3.992,6.152,6.237
	c0.051,0.061,0.109,0.115,0.16,0.177c1.868,2.254,3.514,4.688,5.014,7.218c0.208,0.352,0.434,0.687,0.634,1.043
	c1.381,2.45,2.552,5.023,3.556,7.683c0.183,0.484,0.363,0.963,0.532,1.452c0.923,2.669,1.653,5.42,2.164,8.254
	c0.039,0.214,0.127,0.409,0.164,0.624h94.636c0.036-0.215,0.125-0.41,0.164-0.624c0.511-2.833,1.241-5.585,2.164-8.254
	c0.169-0.49,0.349-0.968,0.532-1.452c1.004-2.661,2.177-5.236,3.559-7.687c0.199-0.353,0.422-0.685,0.628-1.033
	c1.501-2.532,3.149-4.969,5.018-7.224c0.051-0.061,0.109-0.115,0.16-0.177c1.877-2.245,3.951-4.311,6.152-6.237
	c0.248-0.216,0.475-0.449,0.727-0.661c2.165-1.829,4.489-3.462,6.916-4.95c0.409-0.251,0.809-0.505,1.225-0.745
	c2.424-1.401,4.957-2.618,7.592-3.647c0.46-0.179,0.922-0.341,1.388-0.509c2.706-0.976,5.49-1.775,8.37-2.325
	c0.368-0.07,0.742-0.107,1.112-0.17c3.055-0.519,6.174-0.851,9.375-0.851s6.32,0.332,9.375,0.851c0.371,0.063,0.745,0.1,1.112,0.17
	c2.88,0.549,5.663,1.349,8.368,2.324c0.466,0.168,0.931,0.33,1.391,0.51c2.634,1.029,5.167,2.245,7.59,3.646
	c0.416,0.24,0.816,0.494,1.225,0.745c2.427,1.488,4.752,3.121,6.916,4.95c0.251,0.212,0.479,0.444,0.727,0.661
	c2.201,1.926,4.275,3.992,6.152,6.237c0.051,0.061,0.109,0.115,0.16,0.177c1.868,2.254,3.514,4.688,5.014,7.218
	c0.208,0.352,0.434,0.687,0.634,1.043c1.381,2.45,2.552,5.023,3.556,7.683c0.183,0.484,0.363,0.963,0.533,1.452
	c0.923,2.669,1.653,5.42,2.164,8.254c0.039,0.214,0.127,0.409,0.164,0.624h47.319v-99.582l-70.145-105.218L335.127,207.127
	L335.127,207.127z M461.909,318.836c0,5.141-4.164,9.309-9.309,9.309h-80.236c-5.145,0-9.309-4.168-9.309-9.309V238.6
	c0-5.141,4.164-9.309,9.309-9.309s9.309,4.168,9.309,9.309v70.927H452.6C457.745,309.527,461.909,313.695,461.909,318.836z"/>
<g>
	<path style="fill:#1C71DA;" d="M510.436,304.363l-74.473-111.709c-1.727-2.591-4.636-4.145-7.745-4.145h-93.091v-74.473
		c0-5.141-4.164-9.309-9.309-9.309H9.309c-5.145,0-9.309,4.168-9.309,9.309v27.927v18.618V179.2v18.618v18.618v18.618v83.782
		c0,5.141,4.164,9.309,9.309,9.309h65.164v93.091c0,5.141,4.164,9.309,9.309,9.309h47.386c4.453,26.374,27.392,46.545,55.014,46.545
		s50.561-20.172,55.014-46.545h94.773c4.453,26.374,27.392,46.545,55.014,46.545s50.561-20.172,55.014-46.545h56.695
		c5.145,0,9.309-4.168,9.309-9.309V309.527C512,307.691,511.454,305.891,510.436,304.363z M18.618,123.345h297.891v18.618H18.618
		V123.345z M18.618,160.582h297.891V179.2H18.618V160.582z M18.618,197.818h297.891v18.618H18.618V197.818z M18.618,235.054h297.891
		v74.473H83.782H18.618V235.054z M186.182,458.473c-20.536,0-37.236-16.704-37.236-37.236S165.645,384,186.182,384
		s37.236,16.704,37.236,37.236S206.718,458.473,186.182,458.473z M390.982,458.473c-20.536,0-37.236-16.704-37.236-37.236
		S370.445,384,390.982,384c20.536,0,37.236,16.704,37.236,37.236S411.518,458.473,390.982,458.473z M493.382,411.927h-47.318
		c-0.036-0.215-0.125-0.41-0.164-0.624c-0.511-2.833-1.241-5.585-2.164-8.254c-0.169-0.49-0.349-0.968-0.533-1.452
		c-1.004-2.66-2.176-5.233-3.556-7.683c-0.201-0.356-0.426-0.691-0.634-1.043c-1.501-2.531-3.147-4.964-5.014-7.218
		c-0.051-0.061-0.109-0.115-0.16-0.177c-1.877-2.245-3.951-4.311-6.152-6.237c-0.248-0.216-0.475-0.449-0.727-0.661
		c-2.165-1.829-4.489-3.462-6.916-4.95c-0.409-0.251-0.809-0.505-1.225-0.745c-2.423-1.401-4.956-2.617-7.59-3.646
		c-0.461-0.18-0.925-0.342-1.391-0.51c-2.706-0.975-5.489-1.775-8.368-2.324c-0.368-0.07-0.742-0.107-1.112-0.17
		c-3.055-0.519-6.174-0.851-9.375-0.851s-6.32,0.332-9.375,0.851c-0.37,0.063-0.745,0.1-1.112,0.17
		c-2.88,0.549-5.664,1.349-8.37,2.325c-0.465,0.168-0.928,0.329-1.388,0.509c-2.635,1.03-5.168,2.246-7.592,3.647
		c-0.416,0.24-0.816,0.494-1.225,0.745c-2.427,1.488-4.752,3.121-6.916,4.95c-0.251,0.212-0.479,0.444-0.727,0.661
		c-2.201,1.926-4.275,3.992-6.152,6.237c-0.051,0.061-0.109,0.115-0.16,0.177c-1.869,2.256-3.517,4.692-5.018,7.224
		c-0.206,0.348-0.429,0.68-0.628,1.033c-1.382,2.451-2.555,5.026-3.559,7.687c-0.183,0.484-0.363,0.962-0.532,1.452
		c-0.923,2.669-1.653,5.42-2.164,8.254c-0.039,0.214-0.127,0.409-0.164,0.624h-94.637c-0.036-0.215-0.125-0.41-0.164-0.624
		c-0.511-2.833-1.241-5.585-2.164-8.254c-0.169-0.49-0.349-0.968-0.532-1.452c-1.004-2.66-2.176-5.233-3.556-7.683
		c-0.201-0.356-0.426-0.691-0.634-1.043c-1.501-2.531-3.147-4.964-5.014-7.218c-0.051-0.061-0.109-0.115-0.16-0.177
		c-1.877-2.245-3.951-4.311-6.152-6.237c-0.248-0.216-0.475-0.449-0.727-0.661c-2.165-1.829-4.489-3.463-6.916-4.95
		c-0.409-0.251-0.809-0.505-1.225-0.745c-2.423-1.401-4.956-2.617-7.59-3.646c-0.461-0.18-0.925-0.342-1.391-0.51
		c-2.706-0.975-5.489-1.775-8.368-2.324c-0.368-0.07-0.742-0.107-1.112-0.17c-3.055-0.519-6.174-0.851-9.375-0.851
		c-3.201,0-6.32,0.332-9.375,0.851c-0.371,0.063-0.745,0.1-1.112,0.17c-2.88,0.549-5.664,1.349-8.37,2.325
		c-0.465,0.168-0.928,0.329-1.388,0.509c-2.635,1.03-5.168,2.246-7.592,3.647c-0.416,0.24-0.816,0.494-1.225,0.745
		c-2.427,1.488-4.752,3.121-6.916,4.95c-0.251,0.212-0.479,0.444-0.727,0.661c-2.201,1.926-4.275,3.992-6.152,6.237
		c-0.051,0.061-0.109,0.115-0.16,0.177c-1.869,2.256-3.517,4.692-5.018,7.224c-0.206,0.348-0.429,0.68-0.628,1.033
		c-1.382,2.451-2.555,5.026-3.559,7.687c-0.183,0.484-0.363,0.962-0.532,1.452c-0.923,2.669-1.653,5.42-2.164,8.254
		c-0.039,0.214-0.127,0.409-0.164,0.624h-38.01v-83.782h232.727c5.145,0,9.309-4.168,9.309-9.309V207.126h88.109l70.145,105.219
		V411.927z"/>
	<path style="fill:#1C71DA;" d="M381.673,238.6c0-5.141-4.164-9.309-9.309-9.309s-9.309,4.168-9.309,9.309v80.236
		c0,5.141,4.164,9.309,9.309,9.309H452.6c5.145,0,9.309-4.168,9.309-9.309s-4.164-9.309-9.309-9.309h-70.927V238.6z"/>
</g>
<g>
	<path style="fill:#FF5D5D;" d="M19.816,502.691c-2.382,0-4.764-0.909-6.582-2.726c-3.636-3.636-3.636-9.531,0-13.166l32.914-32.913
		c3.632-3.634,9.527-3.634,13.164,0c3.636,3.636,3.636,9.531,0,13.166l-32.914,32.913C24.582,501.781,22.198,502.691,19.816,502.691
		z"/>
	<path style="fill:#FF5D5D;" d="M52.729,502.691c-2.382,0-4.764-0.909-6.582-2.726l-32.914-32.913
		c-3.636-3.635-3.636-9.529,0-13.166c3.632-3.634,9.527-3.634,13.164,0l32.914,32.913c3.636,3.635,3.636,9.529,0,13.166
		C57.496,501.781,55.111,502.691,52.729,502.691z"/>
</g>
<path style="fill:#00D40B;" d="M452.689,102.4c-17.966,0-32.582-14.616-32.582-32.582s14.616-32.582,32.582-32.582
	c17.966,0,32.582,14.616,32.582,32.582S470.655,102.4,452.689,102.4z M452.689,55.854c-7.7,0-13.964,6.264-13.964,13.964
	c0,7.7,6.264,13.964,13.964,13.964c7.7,0,13.964-6.264,13.964-13.964C466.652,62.118,460.389,55.854,452.689,55.854z"/>
<path style="fill:#FFC504;" d="M316.109,80.587L316.109,80.587c-2.468,0-4.836-0.981-6.582-2.727l-26.33-26.331
	c-3.636-3.635-3.636-9.528,0-13.165l26.33-26.33c3.632-3.634,9.527-3.634,13.164,0l26.332,26.33
	c1.745,1.745,2.727,4.114,2.727,6.583s-0.982,4.836-2.727,6.583l-26.332,26.331C320.945,79.606,318.577,80.587,316.109,80.587z
	 M302.946,44.947l13.164,13.166l13.166-13.166l-13.166-13.165L302.946,44.947z"/>
</svg>